<?xml version="1.0" standalone="no"?><!DOCTYPE svg PUBLIC "-//W3C//DTD SVG 1.1//EN" "http://www.w3.org/Graphics/SVG/1.1/DTD/svg11.dtd" [<!ENTITY nbsp " ">]><svg data-noselect="" 
  viewBox="168.59152648466 31.67344331891111 467 498.83961143881896" 
  width="467" 
  height="498.83961143881896" 
  ref="svg_canvas" 
  preserveAspectRatio="none" 
  version="1.1" xmlns="http://www.w3.org/2000/svg" 
  style="background: #FFFFFF;">
    <defs></defs>
    <g id="shape_JZfIU9uh3q" class="icon"  ref="shape_JZfIU9uh3q" key="shape_JZfIU9uh3q" transform="translate(309.22371408521997,111.67344331891111) rotate(0,92.867812399435,92.867812399435) scale(1,1)" style="cursor:move;display:inline;opacity:1;" filter="">
            <g style="display:inline"><rect fill="rgba(0,0,0,0)" width="205.73562479887" height="200.94507361026777" x="-10" y="-10"></rect><svg version="1.1" id="图层_1" xmlns="http://www.w3.org/2000/svg" xmlns:xlink="http://www.w3.org/1999/xlink" x="0px" y="0px" viewBox="0 0 147.19654846191406 143.40000915527344" style="enable-background:new 0 0 144.1 143.6;" xml:space="preserve" width="185.73562479887" height="180.94507361026777" class="style-removed" preserveAspectRatio="none" data-parent="shape_JZfIU9uh3q">

<g>
	<path d="M100.7,84.1c-3,0-5.8,0.9-8.2,2.4c-1.6-0.3-2.9-1-3.9-2c-1.6-1.6-2.3-4-2.2-6.8c0.8-1.8,1.2-3.9,1.2-6
		c0-8.5-6.9-15.3-15.3-15.3c-2.6,0-5,0.6-7.1,1.8c-2.1-0.2-3.9-0.9-5.2-2.2c-1.4-1.5-2.1-3.5-2.2-6c0.9-2,1.4-4.1,1.4-6.5
		c0-2.2-0.5-4.3-1.3-6.3c0.3-2.3,1-4.2,2.5-5.5c1.6-1.4,3.8-2.1,6.4-2c1.7,0.7,3.6,1.1,5.6,1.1s3.9-0.4,5.6-1.1
		c2.6-0.1,4.8,0.6,6.4,2c1.4,1.3,2.2,3.2,2.5,5.5c-0.9,1.9-1.3,4-1.3,6.3c0,8.5,6.9,15.3,15.3,15.3c8.5,0,15.3-6.9,15.3-15.3
		c0-8.5-6.9-15.3-15.3-15.3c-2.6,0-5,0.6-7.1,1.8c-2.3-0.1-4.3-0.7-5.7-2c-1.2-1.2-2-2.8-2.3-4.7c1.3-2.3,2.1-4.9,2.1-7.7
		C87.6,6.9,80.7,0,72.2,0S56.9,6.9,56.9,15.3c0,2.8,0.8,5.5,2.1,7.7c-0.3,1.9-1.1,3.5-2.3,4.7c-1.4,1.3-3.4,2-5.7,2
		c-2.1-1.1-4.6-1.8-7.1-1.8c-8.5,0-15.3,6.9-15.3,15.3c0,8.5,6.9,15.3,15.3,15.3c2.3,0,4.5-0.5,6.4-1.4c2.5,0.1,4.5,0.8,5.9,2.3
		c1.4,1.4,2.1,3.3,2.2,5.6c-0.9,2-1.5,4.2-1.5,6.5c0,8.5,6.9,15.3,15.3,15.3c2,0,3.9-0.4,5.6-1.1c2.9-0.1,5.4,0.7,7,2.3
		c1.1,1.2,1.8,2.7,2.1,4.5c-1,2-1.6,4.3-1.6,6.8c0,2.3,0.5,4.4,1.4,6.3c-0.1,2.6-0.8,4.7-2.3,6.2c-1.5,1.4-3.5,2.1-6,2.2
		c-1.9-0.8-4-1.3-6.2-1.3c-2.2,0-4.2,0.5-6.1,1.3c-2.4-0.1-4.4-0.8-5.9-2.2c-1.6-1.5-2.3-3.8-2.4-6.5c0.8-1.8,1.2-3.9,1.2-6
		c0-8.5-6.9-15.3-15.3-15.3c-8.5,0-15.3,6.9-15.3,15.3c0,8.2,6.4,14.8,14.4,15.3l-0.2,0.2c0.2-0.1,0.3-0.1,0.5-0.2
		c0.2,0,0.4,0,0.6,0c2.1,0,4.2-0.4,6-1.2c2.8-0.1,5.2,0.6,6.8,2.2c1.3,1.2,2,2.9,2.3,5c-1.2,2.2-2,4.8-2,7.5
		c0,8.5,6.9,15.3,15.3,15.3s15.3-6.9,15.3-15.3c0-2.5-0.6-4.9-1.7-7c0.2-2.2,0.9-4.1,2.3-5.4c1.5-1.5,3.7-2.2,6.4-2.2
		c1.9,0.8,4,1.3,6.2,1.3c0.4,0,0.8,0,1.1-0.1c0.1,0,0.1,0,0.2,0.1l-0.1-0.1c7.9-0.6,14.1-7.2,14.1-15.3
		C116,91,109.1,84.1,100.7,84.1z" fill="#182987"></path>
	<circle cx="15.3" cy="71.6" r="15.3" fill="#182987"></circle>
	
		<ellipse transform="matrix(0.9732 -0.2298 0.2298 0.9732 -13.0112 31.5117)" cx="128.8" cy="71.6" rx="15.3" ry="15.3" fill="#182987"></ellipse>
</g>
</svg></g>
        </g><g id="shape_RwMyvYnIc6" class="brand_name"  ref="shape_RwMyvYnIc6" key="shape_RwMyvYnIc6" transform="translate(155.67152648465998,17.833054757729997) rotate(0,473.15837299071,334.68) scale(1,1)" style="cursor:move;display:inline;opacity:1;" filter="">
            <g style="display:inline"><svg xmlns="http://www.w3.org/2000/svg" version="1.1" xmlns:xlink="http://www.w3.org/1999/xlink" width="678.6800000000001" height="669.36" viewBox="0 0 678.6800000000001 669.36" preserveAspectRatio="none" data-parent="shape_RwMyvYnIc6"><rect fill="rgba(0,0,0,0)" width="307" height="92" x="92.92" y="288.68"></rect><g data-width="306.72891999999996" transform="translate(93.05554000000002, 0)"><path d="M16.26 4.92Q10.31 4.92 3.25 1.86L3.25 1.86Q2.79-5.76 0.93-12.36L0.93-12.36L3.62-13.10Q5.20-7.06 8.55-2.79Q11.89 1.49 17.84 1.49L17.84 1.49Q22.30 1.49 25.00-1.58Q27.69-4.65 27.69-9.38L27.69-9.38Q27.69-12.92 26.53-15.33Q25.37-17.75 23.14-19.70Q20.91-21.65 16.73-24.16L16.73-24.16Q9.38-28.62 6.13-32.61Q2.88-36.61 2.88-42.84L2.88-42.84Q2.88-47.11 4.92-50.87Q6.97-54.64 10.92-56.91Q14.87-59.19 20.26-59.19L20.26-59.19Q24.07-59.19 27.46-58.31Q30.85-57.42 31.50-57.33L31.50-57.33Q31.50-52.04 32.80-44.04L32.80-44.04L30.20-43.49Q28.90-49.25 26.34-52.55Q23.79-55.84 18.40-55.84L18.40-55.84Q13.85-55.84 11.71-52.83Q9.57-49.81 9.57-45.53L9.57-45.53Q9.57-40.98 12.08-38.00Q14.59-35.03 20.26-31.69L20.26-31.69Q25.65-28.62 28.76-25.97Q31.87-23.32 33.36-20.12Q34.84-16.91 34.84-12.54L34.84-12.54Q34.84-7.62 32.48-3.62Q30.11 0.37 25.88 2.65Q21.65 4.92 16.26 4.92L16.26 4.92Z" transform="translate(0 371.68) skewX(0)" fill="rgb(49, 49, 49)" stroke="rgb(49, 49, 49)" stroke-width="0.155" data-glyph-w="35.7742" data-glyph-h="111.504" data-glyph-ascender="92.92" data-glyph-descender="-18.584"></path><path d="M29.08 4.92Q21.09 4.92 14.68 0.79Q8.27-3.35 4.60-10.59Q0.93-17.84 0.93-26.58L0.93-26.58Q0.93-35.12 4.41-42.60Q7.90-50.08 14.40-54.64Q20.91-59.19 29.55-59.19L29.55-59.19Q36.80-59.19 43.11-55.29Q49.43-51.38 53.24-44.23Q57.05-37.08 57.05-27.97L57.05-27.97Q57.05-18.12 53.38-10.64Q49.71-3.16 43.30 0.88Q36.89 4.92 29.08 4.92L29.08 4.92ZM30.48 2.14Q38.56 2.14 43.49-4.83Q48.41-11.80 48.41-25.27L48.41-25.27Q48.41-35.12 45.67-42.19Q42.93-49.25 38.24-52.87Q33.54-56.50 27.88-56.50L27.88-56.50Q23.04-56.50 18.91-53.38Q14.77-50.27 12.27-44.09Q9.76-37.91 9.76-29.18L9.76-29.18Q9.76-20.26 12.40-13.10Q15.05-5.95 19.79-1.90Q24.53 2.14 30.48 2.14L30.48 2.14Z" transform="translate(35.7742 371.68) skewX(0)" fill="rgb(49, 49, 49)" stroke="rgb(49, 49, 49)" stroke-width="0.155" data-glyph-w="57.98208" data-glyph-h="111.504" data-glyph-ascender="92.92" data-glyph-descender="-18.584"></path><path d="M31.50 4.92Q21.74 4.92 14.82 0.60Q7.90-3.72 4.41-10.87Q0.93-18.03 0.93-26.58L0.93-26.58Q0.93-36.05 4.97-43.49Q9.01-50.92 16.31-55.06Q23.60-59.19 32.99-59.19L32.99-59.19Q36.61-59.19 39.68-58.73Q42.74-58.26 46.46-57.52L46.46-57.52Q47.85-57.15 49.06-56.96L49.06-56.96Q48.78-49.81 50.64-42.37L50.64-42.37L48.04-41.72Q46.65-46.74 44.88-49.57Q43.11-52.41 39.96-53.89L39.96-53.89Q38.28-54.73 35.91-55.19Q33.54-55.66 31.04-55.66L31.04-55.66Q24.25-55.66 19.47-52.17Q14.68-48.69 12.22-42.56Q9.76-36.42 9.76-28.53L9.76-28.53Q9.76-19.51 12.45-12.73Q15.15-5.95 20.12-2.28Q25.09 1.39 31.87 1.39L31.87 1.39Q38.10 1.39 41.91-1.86Q45.72-5.11 49.15-12.54L49.15-12.54L51.66-11.52Q48.13-5.11 47.02 2.69L47.02 2.69Q42.37 3.72 38.98 4.32Q35.59 4.92 31.50 4.92L31.50 4.92Z" transform="translate(93.75628 371.68) skewX(0)" fill="rgb(49, 49, 49)" stroke="rgb(49, 49, 49)" stroke-width="0.155" data-glyph-w="52.59272" data-glyph-h="111.504" data-glyph-ascender="92.92" data-glyph-descender="-18.584"></path><path d="M29.08 4.92Q21.09 4.92 14.68 0.79Q8.27-3.35 4.60-10.59Q0.93-17.84 0.93-26.58L0.93-26.58Q0.93-35.12 4.41-42.60Q7.90-50.08 14.40-54.64Q20.91-59.19 29.55-59.19L29.55-59.19Q36.80-59.19 43.11-55.29Q49.43-51.38 53.24-44.23Q57.05-37.08 57.05-27.97L57.05-27.97Q57.05-18.12 53.38-10.64Q49.71-3.16 43.30 0.88Q36.89 4.92 29.08 4.92L29.08 4.92ZM30.48 2.14Q38.56 2.14 43.49-4.83Q48.41-11.80 48.41-25.27L48.41-25.27Q48.41-35.12 45.67-42.19Q42.93-49.25 38.24-52.87Q33.54-56.50 27.88-56.50L27.88-56.50Q23.04-56.50 18.91-53.38Q14.77-50.27 12.27-44.09Q9.76-37.91 9.76-29.18L9.76-29.18Q9.76-20.26 12.40-13.10Q15.05-5.95 19.79-1.90Q24.53 2.14 30.48 2.14L30.48 2.14Z" transform="translate(146.349 371.68) skewX(0)" fill="rgb(49, 49, 49)" stroke="rgb(49, 49, 49)" stroke-width="0.155" data-glyph-w="57.98208" data-glyph-h="111.504" data-glyph-ascender="92.92" data-glyph-descender="-18.584"></path><path d="M29.08 4.92Q21.09 4.92 14.68 0.79Q8.27-3.35 4.60-10.59Q0.93-17.84 0.93-26.58L0.93-26.58Q0.93-35.12 4.41-42.60Q7.90-50.08 14.40-54.64Q20.91-59.19 29.55-59.19L29.55-59.19Q36.80-59.19 43.11-55.29Q49.43-51.38 53.24-44.23Q57.05-37.08 57.05-27.97L57.05-27.97Q57.05-18.12 53.38-10.64Q49.71-3.16 43.30 0.88Q36.89 4.92 29.08 4.92L29.08 4.92ZM30.48 2.14Q38.56 2.14 43.49-4.83Q48.41-11.80 48.41-25.27L48.41-25.27Q48.41-35.12 45.67-42.19Q42.93-49.25 38.24-52.87Q33.54-56.50 27.88-56.50L27.88-56.50Q23.04-56.50 18.91-53.38Q14.77-50.27 12.27-44.09Q9.76-37.91 9.76-29.18L9.76-29.18Q9.76-20.26 12.40-13.10Q15.05-5.95 19.79-1.90Q24.53 2.14 30.48 2.14L30.48 2.14Z" transform="translate(204.33108 371.68) skewX(0)" fill="rgb(49, 49, 49)" stroke="rgb(49, 49, 49)" stroke-width="0.155" data-glyph-w="57.98208" data-glyph-h="111.504" data-glyph-ascender="92.92" data-glyph-descender="-18.584"></path><path d="M42.00-2.51Q43.49-1.39 43.49 0.37L43.49 0.37Q43.49 1.67 42.51 2.60Q41.54 3.53 39.77 3.53L39.77 3.53L18.12 3.53Q14.12 3.53 11.34 0.74Q8.55-2.04 8.55-6.04L8.55-6.04L8.55-55.10L0.93-55.10L0.93-57.89L23.60-57.80L23.60-55.10L15.89-55.10L15.89-4.74Q15.89-3.81 16.54-3.21Q17.19-2.60 18.12-2.60L18.12-2.60L32.71-2.60Q35.40-2.60 36.56-4.27Q37.73-5.95 37.73-9.85L37.73-9.85L38.75-9.85Q38.75-7.34 39.17-5.99Q39.58-4.65 40.14-4.09Q40.70-3.53 42.00-2.51L42.00-2.51Z" transform="translate(262.31316 371.68) skewX(0)" fill="rgb(49, 49, 49)" stroke="rgb(49, 49, 49)" stroke-width="0.155" data-glyph-w="44.41576" data-glyph-h="111.504" data-glyph-ascender="92.92" data-glyph-descender="-18.584"></path></g></svg></g>
        </g><g id="shape_I14yRV7qIA" class="brand_slogan"  ref="shape_I14yRV7qIA" key="shape_I14yRV7qIA" transform="translate(305.84152648466,322.82055475773) rotate(0,289.10884113021,112.6925) scale(1,1)" style="cursor:move;display:inline;opacity:1;" filter="">
            <g style="display:inline"><svg xmlns="http://www.w3.org/2000/svg" version="1.1" xmlns:xlink="http://www.w3.org/1999/xlink" width="254" height="225.385" viewBox="0 0 254 225.385" preserveAspectRatio="none" data-parent="shape_I14yRV7qIA"><rect fill="rgba(0,0,0,0)" width="131" height="30" x="30.75" y="97.6925"></rect><g data-width="130.62599999999998" transform="translate(30.937000000000012, 0)"><path d="M2.06-1.45L2.06-5.84L3.91-5.84L4.77-2.98Q5.97-2.03 8.67-2.03L8.67-2.03Q10.42-2.03 11.49-2.95Q12.55-3.87 12.55-5.27Q12.55-6.67 11.39-7.92Q10.24-9.16 7.44-10.21L7.44-10.21Q2.15-12.21 2.15-15.81L2.15-15.81Q2.15-18.82 4.06-20.40Q5.97-21.99 8.73-21.99L8.73-21.99Q12.12-21.99 14.51-20.85L14.51-20.85Q14.79-20.73 15.04-20.57L15.04-20.57L15.04-16.36L13.22-16.30L12.52-18.79Q11.25-19.43 9.22-19.43L9.22-19.43Q5.07-19.43 5.07-16.79L5.07-16.79Q5.07-15.31 6.20-14.34Q7.32-13.38 9.69-12.52L9.69-12.52Q15.47-10.39 15.47-5.75L15.47-5.75Q15.47-3.04 13.65-1.35Q11.84 0.34 8.39 0.34L8.39 0.34Q6.83 0.34 5.29-0.06L5.29-0.06Q3.04-0.68 2.06-1.45L2.06-1.45Z" transform="translate(0 122.6925) " fill="rgb(49, 49, 49)" stroke="rgb(49, 49, 49)" stroke-width="0.051" data-glyph-w="17.4045" data-glyph-h="38.991" data-glyph-ascender="30.4425" data-glyph-descender="-8.5485"></path><path d="M19.57-2.75Q16.45 0.31 12.15 0.31Q7.84 0.31 4.75-2.75Q1.66-5.81 1.66-10.78Q1.66-15.74 4.77-18.87Q7.87-21.99 12.15-21.99Q16.42-21.99 19.56-18.87Q22.69-15.74 22.69-10.78Q22.69-5.81 19.57-2.75ZM5.01-10.78Q5.01-7.13 6.93-4.64Q8.86-2.15 12.16-2.15Q15.47-2.15 17.37-4.64Q19.28-7.13 19.28-10.78Q19.28-14.42 17.37-16.96Q15.47-19.50 12.13-19.50Q8.79-19.50 6.90-16.96Q5.01-14.42 5.01-10.78Z" transform="translate(17.4045 122.6925) " fill="rgb(49, 49, 49)" stroke="rgb(49, 49, 49)" stroke-width="0.051" data-glyph-w="24.354" data-glyph-h="38.991" data-glyph-ascender="30.4425" data-glyph-descender="-8.5485"></path><path d="M18.67-4.00L19.77-2.09Q16.54 0.34 12.12 0.34L12.12 0.34Q7.96 0.34 4.92-2.34L4.92-2.34Q3.44-3.63 2.55-5.73Q1.66-7.84 1.66-10.52Q1.66-13.19 2.60-15.44Q3.54-17.68 5.10-19.10L5.10-19.10Q8.33-22.02 12.67-22.02L12.67-22.02Q15.93-22.02 18.36-20.69L18.36-20.69L18.36-15.68L15.84-15.68L15.28-18.88Q14.67-19.56 12.73-19.56L12.73-19.56Q9.07-19.56 6.98-17.00Q4.89-14.45 4.89-10.59Q4.89-6.73 7.06-4.44Q9.22-2.15 12.55-2.15L12.55-2.15Q14.11-2.15 15.65-2.61Q17.19-3.08 17.93-3.54L17.93-3.54L18.67-4.00Z" transform="translate(41.7585 122.6925) " fill="rgb(49, 49, 49)" stroke="rgb(49, 49, 49)" stroke-width="0.051" data-glyph-w="20.571749999999998" data-glyph-h="38.991" data-glyph-ascender="30.4425" data-glyph-descender="-8.5485"></path><path d="M19.57-2.75Q16.45 0.31 12.15 0.31Q7.84 0.31 4.75-2.75Q1.66-5.81 1.66-10.78Q1.66-15.74 4.77-18.87Q7.87-21.99 12.15-21.99Q16.42-21.99 19.56-18.87Q22.69-15.74 22.69-10.78Q22.69-5.81 19.57-2.75ZM5.01-10.78Q5.01-7.13 6.93-4.64Q8.86-2.15 12.16-2.15Q15.47-2.15 17.37-4.64Q19.28-7.13 19.28-10.78Q19.28-14.42 17.37-16.96Q15.47-19.50 12.13-19.50Q8.79-19.50 6.90-16.96Q5.01-14.42 5.01-10.78Z" transform="translate(62.33024999999999 122.6925) " fill="rgb(49, 49, 49)" stroke="rgb(49, 49, 49)" stroke-width="0.051" data-glyph-w="24.354" data-glyph-h="38.991" data-glyph-ascender="30.4425" data-glyph-descender="-8.5485"></path><path d="M19.57-2.75Q16.45 0.31 12.15 0.31Q7.84 0.31 4.75-2.75Q1.66-5.81 1.66-10.78Q1.66-15.74 4.77-18.87Q7.87-21.99 12.15-21.99Q16.42-21.99 19.56-18.87Q22.69-15.74 22.69-10.78Q22.69-5.81 19.57-2.75ZM5.01-10.78Q5.01-7.13 6.93-4.64Q8.86-2.15 12.16-2.15Q15.47-2.15 17.37-4.64Q19.28-7.13 19.28-10.78Q19.28-14.42 17.37-16.96Q15.47-19.50 12.13-19.50Q8.79-19.50 6.90-16.96Q5.01-14.42 5.01-10.78Z" transform="translate(86.68424999999999 122.6925) " fill="rgb(49, 49, 49)" stroke="rgb(49, 49, 49)" stroke-width="0.051" data-glyph-w="24.354" data-glyph-h="38.991" data-glyph-ascender="30.4425" data-glyph-descender="-8.5485"></path><path d="M18.97-4.98L18.97 0L1.57 0L1.57-1.35L4.37-2.37L4.37-19.34L1.57-20.36L1.57-21.71L10.27-21.71L10.27-20.36L7.47-19.34L7.47-2.34L16.36-2.34L17.37-4.98L18.97-4.98Z" transform="translate(111.03824999999999 122.6925) " fill="rgb(49, 49, 49)" stroke="rgb(49, 49, 49)" stroke-width="0.051" data-glyph-w="19.58775" data-glyph-h="38.991" data-glyph-ascender="30.4425" data-glyph-descender="-8.5485"></path></g></svg></g>
        </g>
  </svg>